<svg xmlns="http://www.w3.org/2000/svg" xmlns:xlink="http://www.w3.org/1999/xlink" width="500" zoomAndPan="magnify" viewBox="0 0 375 374.999991" height="500" preserveAspectRatio="xMidYMid meet" version="1.0"><defs><clipPath id="id1"><path d="M 121.226562 109.382812 L 253.976562 109.382812 L 253.976562 259.382812 L 121.226562 259.382812 Z M 121.226562 109.382812 " clip-rule="nonzero"/></clipPath><clipPath id="id2"><path d="M 146 128 L 154 128 L 154 156 L 146 156 Z M 146 128 " clip-rule="nonzero"/></clipPath><clipPath id="id3"><path d="M 129.984375 131.910156 L 166.355469 126.648438 L 170.007812 151.882812 L 133.632812 157.148438 Z M 129.984375 131.910156 " clip-rule="nonzero"/></clipPath><clipPath id="id4"><path d="M 129.984375 131.910156 L 166.355469 126.648438 L 170.007812 151.882812 L 133.632812 157.148438 Z M 129.984375 131.910156 " clip-rule="nonzero"/></clipPath><clipPath id="id5"><path d="M 129.984375 131.910156 L 166.355469 126.648438 L 170.007812 151.882812 L 133.632812 157.148438 Z M 129.984375 131.910156 " clip-rule="nonzero"/></clipPath><clipPath id="id6"><path d="M 131 133 L 145 133 L 145 153 L 131 153 Z M 131 133 " clip-rule="nonzero"/></clipPath><clipPath id="id7"><path d="M 129.984375 131.910156 L 166.355469 126.648438 L 170.007812 151.882812 L 133.632812 157.148438 Z M 129.984375 131.910156 " clip-rule="nonzero"/></clipPath><clipPath id="id8"><path d="M 129.984375 131.910156 L 166.355469 126.648438 L 170.007812 151.882812 L 133.632812 157.148438 Z M 129.984375 131.910156 " clip-rule="nonzero"/></clipPath><clipPath id="id9"><path d="M 129.984375 131.910156 L 166.355469 126.648438 L 170.007812 151.882812 L 133.632812 157.148438 Z M 129.984375 131.910156 " clip-rule="nonzero"/></clipPath><clipPath id="id10"><path d="M 155 131 L 169 131 L 169 150 L 155 150 Z M 155 131 " clip-rule="nonzero"/></clipPath><clipPath id="id11"><path d="M 129.984375 131.910156 L 166.355469 126.648438 L 170.007812 151.882812 L 133.632812 157.148438 Z M 129.984375 131.910156 " clip-rule="nonzero"/></clipPath><clipPath id="id12"><path d="M 129.984375 131.910156 L 166.355469 126.648438 L 170.007812 151.882812 L 133.632812 157.148438 Z M 129.984375 131.910156 " clip-rule="nonzero"/></clipPath><clipPath id="id13"><path d="M 129.984375 131.910156 L 166.355469 126.648438 L 170.007812 151.882812 L 133.632812 157.148438 Z M 129.984375 131.910156 " clip-rule="nonzero"/></clipPath></defs><g clip-path="url(#id1)"><path fill="#000000" d="M 246.496094 151.636719 L 223.667969 148.984375 C 222.628906 148.851562 221.597656 149.183594 220.816406 149.882812 C 220.03125 150.578125 219.589844 151.570312 219.589844 152.609375 L 219.589844 245.011719 L 193.445312 251.070312 L 193.445312 117.679688 L 246.496094 129.976562 Z M 186.128906 251.089844 L 128.710938 238.003906 L 128.710938 130.75 L 186.128906 117.660156 Z M 253.8125 127.074219 C 253.8125 125.378906 252.640625 123.898438 250.984375 123.519531 L 190.625 109.53125 C 190.199219 109.429688 189.589844 109.394531 188.972656 109.523438 L 124.242188 124.277344 C 122.574219 124.65625 121.394531 126.132812 121.394531 127.835938 L 121.394531 240.914062 C 121.394531 242.621094 122.574219 244.097656 124.242188 244.472656 L 188.972656 259.226562 C 189.554688 259.386719 190.191406 259.320312 190.617188 259.226562 L 224.078125 251.472656 C 225.730469 251.089844 226.902344 249.613281 226.902344 247.914062 L 226.902344 161.183594 L 250.4375 159.378906 C 253.226562 158.988281 253.808594 156.902344 253.8125 155.808594 C 253.8125 155.738281 253.8125 127.074219 253.8125 127.074219 " fill-opacity="1" fill-rule="nonzero"/></g><g clip-path="url(#id2)"><g clip-path="url(#id3)"><g clip-path="url(#id4)"><g clip-path="url(#id5)"><path fill="#000000" d="M 150 154.777344 L 146.363281 155.304688 L 149.988281 129.015625 L 153.625 128.488281 Z M 150 154.777344 " fill-opacity="1" fill-rule="nonzero"/></g></g></g></g><g clip-path="url(#id6)"><g clip-path="url(#id7)"><g clip-path="url(#id8)"><g clip-path="url(#id9)"><path fill="#000000" d="M 144.023438 151.960938 L 140.386719 152.488281 L 131.808594 144.527344 L 137.78125 134.460938 L 141.417969 133.9375 L 135.445312 144 Z M 144.023438 151.960938 " fill-opacity="1" fill-rule="nonzero"/></g></g></g></g><g clip-path="url(#id10)"><g clip-path="url(#id11)"><g clip-path="url(#id12)"><g clip-path="url(#id13)"><path fill="#000000" d="M 158.574219 149.859375 L 162.210938 149.332031 L 168.179688 139.265625 L 159.601562 131.304688 L 155.964844 131.832031 L 164.542969 139.792969 Z M 158.574219 149.859375 " fill-opacity="1" fill-rule="nonzero"/></g></g></g></g></svg>